<svg version="1" xmlns="http://www.w3.org/2000/svg" width="1365.333" height="1365.333" viewBox="0 0 1024.000000 1024.000000"><path d="M761.3 1.1c-7.6 1.3-17.9 5.4-25 10.1-4.3 2.7-22.6 20.6-58.1 56.7-85.1 86.5-643.9 655.8-654.3 666.6-11.6 12-17 20.1-20.7 30.9l-2.7 8.1-.3 125.2L0 1024h1024V0L895.3.1c-70.9.1-131.1.5-134 1zm-64.2 466.6c101.4 103.2 184.4 188.2 184.4 188.9 0 1.3-84.1 87.4-85.4 87.4-.4 0-64.3-64.8-142.1-144S512.3 456 512 456c-.3 0-64.2 64.8-142 144S228.3 744 227.9 744c-1.3 0-85.4-86.1-85.4-87.4 0-1.3 368.2-376.6 369.5-376.6.4 0 83.7 84.5 185.1 187.7z"/></svg>