<?xml version="1.0" encoding="UTF-8"?>
<svg width="51px" height="50px" viewBox="0 0 51 50" version="1.1" xmlns="http://www.w3.org/2000/svg" xmlns:xlink="http://www.w3.org/1999/xlink">
    <!-- Generator: Sketch 47.1 (45422) - http://www.bohemiancoding.com/sketch -->
    <title>Shape</title>
    <desc>Created with Sketch.</desc>
    <defs></defs>
    <g id="Page-2" stroke="none" stroke-width="1" fill="none" fill-rule="evenodd">
        <g id="free" fill-rule="nonzero" fill="#000000">
            <path d="M20.84375,0.15625 C20.550781,0.136719 20.246094,0.175781 19.96875,0.25 C19.433594,0.390625 18.964844,0.738281 18.625,1.21875 L18.59375,1.1875 L18.5625,1.25 L15.71875,5 L10.78125,5.09375 L10.71875,5.09375 L10.65625,5.125 C9.574219,5.28125 8.574219,6.0625 8.40625,7.25 L7.6875,11.9375 L3.5,14.34375 L3.46875,14.34375 L3.4375,14.375 C2.515625,14.988281 2.023438,16.15625 2.34375,17.28125 L2.34375,17.3125 L3.90625,21.875 L1.375,25.9375 L1.375,25.96875 C0.726562,26.972656 0.863281,28.269531 1.6875,29.09375 L1.6875,29.125 L5.15625,32.46875 L4.8125,37.3125 L4.8125,37.40625 C4.8125,38.488281 5.429688,39.628906 6.625,39.96875 L11.28125,41.34375 L13.1875,45.78125 L13.21875,45.84375 C13.695313,46.878906 14.835938,47.546875 16,47.25 L16,47.28125 L16.0625,47.25 L20.75,46.28125 L24.375,49.28125 L24.4375,49.34375 C24.949219,49.6875 25.476563,49.8125 26,49.8125 C26.566406,49.8125 27.132813,49.628906 27.5625,49.34375 L27.625,49.28125 L31.25,46.28125 L36,47.28125 L36.0625,47.28125 C37.132813,47.433594 38.332031,46.902344 38.8125,45.78125 L40.71875,41.34375 L45.28125,40.0625 C46.421875,39.738281 47.183594,38.648438 47.0625,37.4375 L47.09375,37.4375 L47.09375,37.34375 L46.71875,32.59375 L50.125,29.28125 L50.1875,29.21875 L50.15625,29.1875 C51.015625,28.402344 51.203125,27.050781 50.5,26.09375 L50.5625,26.0625 L48,21.96875 L49.53125,17.4375 L49.5625,17.40625 L49.5625,17.375 C49.882813,16.25 49.390625,15.082031 48.46875,14.46875 L48.4375,14.4375 L48.40625,14.4375 L44.21875,12.09375 L43.5,7.34375 C43.332031,6.179688 42.378906,5.203125 41.125,5.1875 L41.09375,5.1875 L36.3125,5.03125 L33.5,1.21875 L33.5,1.1875 L33.46875,1.15625 C32.710938,0.246094 31.445313,-0.109375 30.375,0.40625 C30.363281,0.410156 30.355469,0.402344 30.34375,0.40625 L26,2.46875 L21.75,0.40625 L21.71875,0.40625 L21.6875,0.375 C21.414063,0.257813 21.136719,0.175781 20.84375,0.15625 Z M20.5,2.15625 C20.621094,2.128906 20.757813,2.15625 20.90625,2.21875 L25.5625,4.5 L26,4.71875 L26.4375,4.5 L31.21875,2.1875 L31.25,2.1875 C31.367188,2.128906 31.675781,2.167969 31.90625,2.40625 C31.917969,2.421875 31.925781,2.421875 31.9375,2.4375 L35,6.59375 L35.28125,6.96875 L35.75,7 L41.0625,7.1875 L41.09375,7.1875 C41.222656,7.1875 41.46875,7.429688 41.5,7.65625 L42.3125,12.84375 L42.375,13.34375 L42.8125,13.5625 L47.34375,16.125 C47.625,16.3125 47.703125,16.535156 47.625,16.8125 L45.96875,21.78125 L45.8125,22.21875 L46.0625,22.625 L48.84375,27.125 L48.875,27.1875 L48.9375,27.25 C49.117188,27.464844 49.113281,27.519531 48.875,27.71875 L48.8125,27.78125 L45,31.46875 L44.65625,31.8125 L44.6875,32.28125 L45.09375,37.5625 L45.09375,37.59375 L45.125,37.65625 C45.144531,37.800781 44.945313,38.058594 44.71875,38.125 L39.71875,39.53125 L39.28125,39.65625 L39.09375,40.09375 L36.96875,45 C36.855469,45.265625 36.679688,45.347656 36.375,45.3125 L36.34375,45.3125 L31.21875,44.21875 L30.75,44.125 L30.375,44.4375 L26.4375,47.65625 C26.265625,47.769531 26.234375,47.8125 26,47.8125 C25.921875,47.8125 25.648438,47.714844 25.5625,47.65625 L21.625,44.4375 L21.25,44.125 L20.78125,44.21875 L15.59375,45.3125 L15.5625,45.34375 L15.53125,45.34375 C15.339844,45.398438 15.164063,45.308594 15.03125,45 L12.90625,40.09375 L12.71875,39.6875 L12.28125,39.53125 L7.1875,38.03125 C6.984375,37.972656 6.8125,37.726563 6.8125,37.40625 L7.1875,32.1875 L7.21875,31.71875 L6.90625,31.375 L3.09375,27.6875 C2.921875,27.515625 2.902344,27.257813 3.03125,27.0625 L3.03125,27.03125 L3.0625,27.03125 L5.84375,22.53125 L6.09375,22.125 L5.9375,21.6875 L4.25,16.71875 L4.25,16.6875 C4.1875,16.425781 4.292969,16.210938 4.5625,16.03125 L9.09375,13.46875 L9.5,13.21875 L9.59375,12.75 L10.375,7.5625 L10.375,7.53125 C10.40625,7.320313 10.621094,7.140625 10.9375,7.09375 L16.21875,7 L16.6875,7 L17,6.59375 L20.1875,2.40625 L20.21875,2.375 L20.21875,2.34375 C20.277344,2.257813 20.378906,2.183594 20.5,2.15625 Z M11.8985,21.146 L11.8985,29 L13.6255,29 L13.6255,25.755 L16.9145,25.755 L16.9145,24.413 L13.6255,24.413 L13.6255,22.598 L17.4205,22.598 L17.4205,21.146 L11.8985,21.146 Z M20.1485,24.699 L22.0405,24.699 C22.436502,24.699 22.733499,24.6110009 22.9315,24.435 C23.129501,24.2589991 23.2285,23.973002 23.2285,23.577 C23.2285,23.1956648 23.129501,22.9188342 22.9315,22.7465 C22.733499,22.5741658 22.436502,22.488 22.0405,22.488 L20.1485,22.488 L20.1485,24.699 Z M18.4215,21.146 L22.6565,21.146 C23.0085018,21.146 23.3256653,21.2028328 23.608,21.3165 C23.8903347,21.4301672 24.1323323,21.585999 24.334,21.784 C24.5356677,21.982001 24.6896661,22.2111654 24.796,22.4715 C24.9023339,22.7318346 24.9555,23.0123318 24.9555,23.313 C24.9555,23.7750023 24.8583343,24.174665 24.664,24.512 C24.4696657,24.849335 24.1525022,25.1059991 23.7125,25.282 L23.7125,25.304 C23.9251677,25.362667 24.101166,25.4524994 24.2405,25.5735 C24.379834,25.6945006 24.4934996,25.8374992 24.5815,26.0025 C24.6695004,26.1675008 24.7336665,26.348999 24.774,26.547 C24.8143335,26.745001 24.8418333,26.942999 24.8565,27.141 C24.8638334,27.2656673 24.8711666,27.4123325 24.8785,27.581 C24.8858334,27.7496675 24.8986666,27.9219991 24.917,28.098 C24.9353334,28.2740009 24.9646665,28.4408325 25.005,28.5985 C25.0453335,28.7561675 25.1058329,28.8899995 25.1865,29 L23.4595,29 C23.3641662,28.7506654 23.3055001,28.4536684 23.2835,28.109 C23.2614999,27.7643316 23.2285002,27.4343349 23.1845,27.119 C23.125833,26.7083313 23.0011676,26.4076676 22.8105,26.217 C22.6198324,26.0263324 22.3081688,25.931 21.8755,25.931 L20.1485,25.931 L20.1485,29 L18.4215,29 L18.4215,21.146 Z M26.3635,21.146 L26.3635,29 L32.3255,29 L32.3255,27.548 L28.0905,27.548 L28.0905,25.623 L31.8965,25.623 L31.8965,24.281 L28.0905,24.281 L28.0905,22.598 L32.2375,22.598 L32.2375,21.146 L26.3635,21.146 Z M33.4915,21.146 L33.4915,29 L39.4535,29 L39.4535,27.548 L35.2185,27.548 L35.2185,25.623 L39.0245,25.623 L39.0245,24.281 L35.2185,24.281 L35.2185,22.598 L39.3655,22.598 L39.3655,21.146 L33.4915,21.146 Z" id="Shape"></path>
        </g>
    </g>
</svg>