<svg xmlns="http://www.w3.org/2000/svg" xmlns:xlink="http://www.w3.org/1999/xlink" viewBox="0 0 50 50" version="1.1">
<g id="surface1">
<path style=" " d="M 11.90625 5.96875 C 11.863281 5.976563 11.820313 5.988281 11.78125 6 C 11.316406 6.105469 10.988281 6.523438 11 7 L 11 8 L 10 8 C 9.96875 8 9.9375 8 9.90625 8 C 9.355469 8.027344 8.925781 8.496094 8.953125 9.046875 C 8.980469 9.597656 9.449219 10.027344 10 10 L 11 10 L 11 11 C 10.996094 11.359375 11.183594 11.695313 11.496094 11.878906 C 11.808594 12.058594 12.191406 12.058594 12.503906 11.878906 C 12.816406 11.695313 13.003906 11.359375 13 11 L 13 10 L 14 10 C 14.359375 10.003906 14.695313 9.816406 14.878906 9.503906 C 15.058594 9.191406 15.058594 8.808594 14.878906 8.496094 C 14.695313 8.183594 14.359375 7.996094 14 8 L 13 8 L 13 7 C 13.011719 6.710938 12.894531 6.433594 12.6875 6.238281 C 12.476563 6.039063 12.191406 5.941406 11.90625 5.96875 Z M 36.15625 5.96875 L 34.84375 6.21875 C 31.113281 6.960938 28.054688 9.585938 26.71875 13.0625 C 26.519531 13.582031 26.777344 14.160156 27.296875 14.359375 C 27.816406 14.558594 28.394531 14.300781 28.59375 13.78125 C 29.546875 11.304688 31.605469 9.425781 34.125 8.5625 C 34.4375 14.347656 39.136719 19 45 19 C 45.214844 19 45.414063 18.949219 45.625 18.9375 C 45.238281 20.644531 44.515625 22.21875 43.3125 23.40625 C 42.914063 23.792969 42.910156 24.429688 43.296875 24.828125 C 43.683594 25.226563 44.320313 25.230469 44.71875 24.84375 C 46.546875 23.042969 47.753906 20.589844 47.96875 17.875 L 48.0625 16.5625 L 46.75 16.8125 C 46.179688 16.925781 45.601563 17 45 17 C 40.019531 17 36 12.980469 36 8 C 36 7.777344 36.011719 7.542969 36.03125 7.28125 Z M 24 16 C 18.488281 16 14 20.488281 14 26 C 14 26.40625 14.074219 26.792969 14.125 27.1875 C 10.703125 27.640625 8 30.457031 8 34 C 8 37.855469 11.144531 41 15 41 L 36 41 C 40.957031 41 45 36.957031 45 32 C 45 27.042969 40.957031 23 36 23 C 35.125 23 34.332031 23.265625 33.53125 23.5 C 32.402344 19.214844 28.632813 16 24 16 Z M 3.90625 17.96875 C 3.863281 17.976563 3.820313 17.988281 3.78125 18 C 3.316406 18.105469 2.988281 18.523438 3 19 C 2.96875 19 2.9375 19 2.90625 19 C 2.355469 19.027344 1.925781 19.496094 1.953125 20.046875 C 1.980469 20.597656 2.449219 21.027344 3 21 C 2.996094 21.359375 3.183594 21.695313 3.496094 21.878906 C 3.808594 22.058594 4.191406 22.058594 4.503906 21.878906 C 4.816406 21.695313 5.003906 21.359375 5 21 C 5.359375 21.003906 5.695313 20.816406 5.878906 20.503906 C 6.058594 20.191406 6.058594 19.808594 5.878906 19.496094 C 5.695313 19.183594 5.359375 18.996094 5 19 C 5.011719 18.710938 4.894531 18.433594 4.6875 18.238281 C 4.476563 18.039063 4.191406 17.941406 3.90625 17.96875 Z M 24 18 C 28.015625 18 31.316406 20.941406 31.90625 24.78125 L 32.09375 26.0625 L 33.28125 25.5625 C 34.117188 25.207031 35.03125 25 36 25 C 39.878906 25 43 28.121094 43 32 C 43 35.878906 39.878906 39 36 39 L 15 39 C 12.226563 39 10 36.773438 10 34 C 10 31.226563 12.226563 29 15 29 C 15.003906 29 15.058594 28.996094 15.1875 29 L 16.5 29.0625 L 16.21875 27.78125 C 16.085938 27.199219 16 26.609375 16 26 C 16 21.570313 19.570313 18 24 18 Z "></path>
</g>
</svg>