<?xml version="1.0" encoding="UTF-8"?>
<svg width="649px" height="184px" viewBox="0 0 649 184" version="1.1" xmlns="http://www.w3.org/2000/svg" xmlns:xlink="http://www.w3.org/1999/xlink">
    <!-- Generator: Sketch 47.1 (45422) - http://www.bohemiancoding.com/sketch -->
    <title>Reader Actions</title>
    <desc>Created with Sketch.</desc>
    <defs>
        <path d="M149.459794,127.981855 C149.820348,130.273149 150,131.945259 150,133.000978 C150,133.824387 149.971914,134.586708 149.911288,135.291033 C145.102295,135.291033 139.332243,135.056566 132.602978,134.586708 C127.012577,134.118084 121.333465,133.882691 115.566889,133.882691 C110.819175,133.882691 106.760733,133.942852 103.396237,134.060085 L85.3668193,135.028184 L80.1382763,135.205576 C80.1382763,132.561969 80.2560525,130.273149 80.4969286,128.334788 L92.3067015,125.868575 C95.6736972,125.106561 97.7158744,124.431546 98.4373075,123.843835 C99.1590665,123.140746 99.5190225,122.346957 99.5190225,121.466167 C99.5190225,120.585372 99.3400224,119.646894 98.9788169,118.647017 L94.7444718,108.607852 L86.4504357,88.5252077 L45.8838667,88.3499703 C44.1410136,92.1656011 41.0168117,100.211497 36.5090663,112.482716 C35.1270927,116.242198 34.435636,118.707174 34.435636,119.88136 C34.435636,121.70248 34.9464954,122.965206 35.9682142,123.669224 C37.5301549,124.901401 40.6253039,125.841122 45.253031,126.487137 C45.4333133,126.487137 45.8396681,126.547295 46.4701886,126.66237 C47.1010243,126.780837 48.0027668,126.926449 49.17446,127.103842 C50.3458326,127.279074 51.5629957,127.456467 52.8246724,127.631699 C52.8856085,129.276663 52.9152862,130.978398 52.9152862,132.741522 C52.9152862,133.738002 52.8552953,134.532102 52.735004,135.118885 C48.7693709,135.118885 38.2825477,134.532102 21.2745396,133.357919 L16.9470763,134.061011 C12.0800214,134.882568 7.06172619,135.294118 1.89314639,135.294118 L0,135.294118 L0.180284394,128.332941 C1.50226655,127.92293 3.90564161,127.395381 7.39198826,126.746896 C12.7402196,125.80965 16.045964,124.897393 17.3076462,124.018759 C18.5093321,123.079352 19.9522418,121.081455 21.6351094,118.02846 L42.9993131,63.7699181 L68.2391934,0 L75.0002928,0 L79.7770709,0 L80.7690957,1.849832 L99.2484308,44.1274826 C105.439392,58.3388997 109.16379,67.0588917 110.427058,70.2877241 C112.769489,76.2771053 115.654352,83.1775217 119.078497,90.9861759 C120.640769,94.3921037 122.595158,99.2072988 124.940141,105.433306 C126.381758,109.367091 128.333973,113.742353 130.79858,118.556317 C132.120899,121.434387 133.173225,123.106811 133.954687,123.578518 C135.276028,124.694394 137.350692,125.367869 140.174983,125.604495 C143.000469,125.95712 146.094972,126.748749 149.459794,127.981855 Z M79.3268271,77.9513973 L81.9429999,77.7758573 C80.0189248,72.1974319 77.2549886,65.121157 73.6477144,56.5477226 C70.4631957,48.7964652 67.6992594,42.6016061 65.3552538,37.9625614 L50.0310477,77.5987779 C54.4178825,77.6576982 59.0304367,77.7157161 63.8678412,77.7758573 C68.7061149,77.835096 72.2809029,77.8795251 74.5942694,77.9069682 C76.9076902,77.9353667 78.4850646,77.9513973 79.3268271,77.9513973 Z" id="path-1"></path>
        <path d="M83.6974466,70.9464668 C83.899378,72.2166369 84,73.143569 84,73.7288024 C84,74.185257 83.9842364,74.6078493 83.9503029,74.99829 C81.2572779,74.99829 78.0260801,74.8683143 74.2576916,74.6078493 C71.1270667,74.3480687 67.9467446,74.21758 64.7174621,74.21758 C62.0587144,74.21758 59.7860035,74.2509289 57.9018829,74.3159168 L47.8054088,74.85258 L44.8774274,74.9509173 C44.8774274,73.4854396 44.9433792,72.2166369 45.0782882,71.1421125 L51.6917543,69.7749721 C53.5772499,69.3525494 54.7208733,68.9783578 55.1248835,68.6525634 C55.5290902,68.2628061 55.7306288,67.8227707 55.7306288,67.3345042 C55.7306288,66.8462425 55.6303996,66.3259946 55.4281244,65.771718 L53.0569032,60.2065281 L48.4122344,49.0737589 L25.6949663,48.9766177 C24.7189627,51.0918041 22.9694123,55.5520272 20.4450777,62.354551 C19.6711725,64.438611 19.2839522,65.8050674 19.2839522,66.4559722 C19.2839522,67.4655079 19.5700349,68.1654939 20.1421953,68.5557641 C21.0168845,69.2388213 22.7501654,69.7597532 25.3416943,70.1178711 C25.4426551,70.1178711 25.670211,70.1512157 26.0233013,70.2150076 C26.3765733,70.2806804 26.8815493,70.361401 27.5376939,70.4597393 C28.1936666,70.5568805 28.8752736,70.655214 29.5818127,70.7523553 C29.6159377,71.6642414 29.6325558,72.6075912 29.6325558,73.5849739 C29.6325558,74.1373714 29.5989661,74.5775788 29.5315999,74.9028602 C27.3108451,74.9028602 21.4382249,74.5775788 11.9137393,73.9266735 L9.49036057,74.3164298 C6.7648115,74.7718584 3.95456613,75 1.06016219,75 L0,75 L0.100959339,71.1410865 C0.841269389,70.9138014 2.18716016,70.6213564 4.13951117,70.2618706 C7.13452479,69.7423067 8.98574312,69.2365984 9.69228219,68.7495336 C10.3652266,68.2287727 11.1732519,67.1212409 12.1156609,65.4288191 L24.0796129,35.3507036 L38.2139302,0 L42.0001743,0 L44.6751571,0 L45.2306993,1.02546695 L55.5791311,24.4619632 C59.0460465,32.3400564 61.1317057,37.1739581 61.8391532,38.9638632 C63.1509219,42.28406 64.7664226,46.1092812 66.6839365,50.4379924 C67.5587927,52.3260599 68.6532592,54.995352 69.966452,58.4467234 C70.7737849,60.6274117 71.8670237,63.052827 73.2471996,65.7214351 C73.9876967,67.3168914 74.5769908,68.2439916 75.0145908,68.5054859 C75.7545478,69.1240673 76.9163902,69.4974039 78.4979574,69.6285786 C80.0802612,69.8240533 81.8131787,70.2628966 83.6974466,70.9464668 Z M44.4230227,43.212191 L45.8880913,43.1148787 C44.8105916,40.0224801 43.2627861,36.0997757 41.2427153,31.3471076 C39.4593935,27.0502116 37.9115831,23.6160919 36.5989354,21.0444684 L28.0173842,43.0167115 C30.474004,43.0493769 33.057047,43.0815293 35.7659731,43.1148787 C38.4754344,43.1477151 40.477296,43.1723436 41.7727952,43.1875625 C43.0682945,43.2032991 43.9516414,43.212191 44.4230227,43.212191 Z" id="path-3"></path>
        <path d="M63.5,127 C98.5700975,127 127,98.5700784 127,63.5 C127,28.4299025 98.5700975,0 63.5,0 C28.4299215,0 0,28.4299025 0,63.5 C0,98.5700784 28.4299215,127 63.5,127 Z" id="path-5"></path>
        <path d="M20.9748428,114.679558 C22.3123729,116.016579 24.1970552,117.262427 26.6289308,118.417127 C29.0608065,119.571827 32.2830012,120.149171 36.2955975,120.149171 C42.9832599,120.149171 48.5461,118.417145 52.9842767,114.953039 C57.4224711,111.488933 59.6415094,106.657488 59.6415094,100.458564 C59.6415094,95.9613064 58.2128079,92.1933839 55.3553459,89.1546961 C52.4978898,86.1160084 48.8805267,83.3204538 44.5031447,80.7679558 C40.1257626,78.2154579 35.4444719,75.6933898 30.4591195,73.2016575 C25.4737671,70.7099251 20.7924764,67.7624505 16.4150943,64.359116 C12.0377123,60.9557815 8.42034916,56.9143842 5.56289308,52.2348066 C2.70543642,47.555229 1.27672956,41.75144 1.27672956,34.8232044 C1.27672956,28.8673837 2.371058,23.7016575 4.55974843,19.3259669 C6.74843944,14.9502762 9.75784398,11.3342737 13.5880503,8.47790055 C17.4182566,5.62152736 21.9475636,3.49449474 27.1761006,2.09668508 C32.4046377,0.698875423 38.0586669,0 44.1383648,0 C51.5555928,0 58.455916,0.516554981 64.8396226,1.54972376 C71.2233293,2.58289253 76.9685535,4.19337017 82.0754717,6.38121547 C81.9538588,8.8121939 81.7411098,11.6076956 81.4371069,14.7679558 C81.1331041,17.928216 80.7379651,21.058011 80.2515723,24.1574586 C79.7651795,27.2569061 79.2484277,30.1740331 78.7012579,32.9088398 C78.1540881,35.6436464 77.6373362,37.9226519 77.1509434,39.7458564 L69.672956,39.7458564 L61.2830189,14.7679558 C59.8238994,14.038674 57.6656381,13.3701461 54.8081761,12.7624309 C51.95072,12.1547157 49.0021102,11.8508287 45.9622642,11.8508287 C40.8553224,11.8508287 36.5387998,13.1878257 33.0125786,15.8618785 C29.4863575,18.5359312 27.7232704,22.4254144 27.7232704,27.5303867 C27.7232704,32.1492105 29.1823782,36.0690412 32.1006289,39.2900552 C35.0188797,42.5110693 38.6666431,45.4585439 43.0440252,48.1325967 C47.4214072,50.8066494 52.1938929,53.450237 57.3616352,56.0635359 C62.5293893,58.6768348 67.3018868,61.6850633 71.6792453,65.0883978 C76.0566038,68.4917323 79.7044025,72.4723757 82.6226415,77.0303867 C85.5408805,81.5884213 87,87.2099134 87,93.8950276 C87,106.049785 82.8962853,115.439193 74.6886792,122.063536 C66.4810732,128.687879 54.4130783,132 38.4842767,132 C34.5932698,132 30.6719274,131.756909 26.7201258,131.270718 C22.7683242,130.784528 19.0293658,130.116026 15.5031447,129.265193 C11.9769235,128.414363 8.84592372,127.502766 6.11006289,126.530387 C3.3742003,125.558007 1.33753307,124.524868 0,123.430939 C0.121594076,120.635343 0.42557397,117.627086 0.911949686,114.406077 C1.3983254,111.185069 1.9150914,107.964102 2.46226415,104.743094 C3.0094369,101.522086 3.58699935,98.4530504 4.19496855,95.5359116 C4.80293893,92.6187728 5.41089755,90.0663101 6.01886792,87.878453 L13.4968553,87.878453 L20.9748428,114.679558 Z" id="path-7"></path>
    </defs>
    <g id="Page-3" stroke="none" stroke-width="1" fill="none" fill-rule="evenodd">
        <g id="A4" transform="translate(-412.000000, -173.000000)">
            <g id="Reader-Actions" transform="translate(412.000000, 173.000000)">
                <g id="largerFont">
                    <mask id="mask-2" fill="white">
                        <use xlink:href="#path-1"></use>
                    </mask>
                    <g id="Clip-2"></g>
                    <polygon id="Fill-1" fill="#DEDDDD" mask="url(#mask-2)" points="-55.8823529 194.117647 205.882353 194.117647 205.882353 -50 -55.8823529 -50"></polygon>
                </g>
                <g id="smallerFont" transform="translate(165.000000, 60.000000)">
                    <mask id="mask-4" fill="white">
                        <use xlink:href="#path-3"></use>
                    </mask>
                    <g id="Clip-2"></g>
                    <polygon id="Fill-1" fill="#DEDDDD" mask="url(#mask-4)" points="-48 123 132 123 132 -48 -48 -48"></polygon>
                </g>
                <text id="Size" font-family="HelveticaNeue-Bold, Helvetica Neue" font-size="33" font-weight="bold" fill="#DEDDDD">
                    <tspan x="117" y="183">Size</tspan>
                </text>
                <text id="Serif" font-family="HelveticaNeue-Bold, Helvetica Neue" font-size="33" font-weight="bold" fill="#DEDDDD">
                    <tspan x="349.1505" y="183">Serif</tspan>
                </text>
                <text id="Theme" font-family="HelveticaNeue-Bold, Helvetica Neue" font-size="33" font-weight="bold" fill="#DEDDDD">
                    <tspan x="532.243" y="183">Theme</tspan>
                </text>
                <g id="theme" transform="translate(522.000000, 7.000000)">
                    <mask id="mask-6" fill="white">
                        <use xlink:href="#path-5"></use>
                    </mask>
                    <g id="Clip-2"></g>
                    <polygon id="Fill-1" fill="#DEDDDD" mask="url(#mask-6)" points="-32.5641026 156.307692 156.307692 156.307692 156.307692 -32.5641026 -32.5641026 -32.5641026"></polygon>
                </g>
                <g id="serif" transform="translate(342.000000, 2.000000)">
                    <mask id="mask-8" fill="white">
                        <use xlink:href="#path-7"></use>
                    </mask>
                    <g id="Clip-2"></g>
                    <polygon id="Fill-1" fill="#DEDDDD" mask="url(#mask-8)" points="-33 159 111 159 111 -30 -33 -30"></polygon>
                </g>
            </g>
        </g>
    </g>
</svg>